<svg xmlns="http://www.w3.org/2000/svg" width="760" height="340" viewBox="0 0 760 340" font-family="-apple-system, BlinkMacSystemFont, 'Segoe UI', Helvetica, Arial, sans-serif" role="img" aria-label="The 6 stages of the Fab pipeline: 1 Intake leads to the Execution group (2 Apply then 3 Review), which leads to the Completion group (4 Hydrate), which leads to the Shipping group (5 Ship then 6 Review-PR).">
  <title>Fab Kit 6-stage pipeline</title>
  <desc>1 Intake feeds the Execution group (2 Apply to 3 Review), then the Completion group (4 Hydrate), then the Shipping group (5 Ship to 6 Review-PR).</desc>

  <defs>
    <marker id="arrow" viewBox="0 0 10 10" refX="9" refY="5" markerWidth="7" markerHeight="7" orient="auto-start-reverse">
      <path d="M0,0 L10,5 L0,10 z" fill="#555555"/>
    </marker>
  </defs>

  <rect x="0" y="0" width="760" height="340" fill="#ffffff"/>

  <!-- 1 INTAKE (blue) -->
  <rect x="310" y="24" width="140" height="44" rx="6" fill="#64b5f6" stroke="#1565C0" stroke-width="2"/>
  <text x="380" y="51" text-anchor="middle" font-size="16" font-weight="600" fill="#1a1a1a">1 INTAKE</text>

  <!-- arrow INTAKE -> Execution group -->
  <line x1="380" y1="68" x2="380" y2="96" stroke="#555555" stroke-width="2" marker-end="url(#arrow)"/>

  <!-- Execution group (amber) -->
  <rect x="180" y="100" width="400" height="74" rx="8" fill="#ffb74d" stroke="#E65100" stroke-width="2"/>
  <text x="200" y="120" text-anchor="start" font-size="13" font-weight="700" fill="#1a1a1a">Execution</text>
  <rect x="218" y="124" width="130" height="40" rx="6" fill="#ffffff" stroke="#E65100" stroke-width="1.5"/>
  <text x="283" y="149" text-anchor="middle" font-size="15" font-weight="600" fill="#1a1a1a">2 APPLY</text>
  <line x1="348" y1="144" x2="408" y2="144" stroke="#555555" stroke-width="2" marker-end="url(#arrow)"/>
  <rect x="412" y="124" width="130" height="40" rx="6" fill="#ffffff" stroke="#E65100" stroke-width="1.5"/>
  <text x="477" y="149" text-anchor="middle" font-size="15" font-weight="600" fill="#1a1a1a">3 REVIEW</text>

  <!-- arrow Execution -> Completion group -->
  <line x1="380" y1="174" x2="380" y2="202" stroke="#555555" stroke-width="2" marker-end="url(#arrow)"/>

  <!-- Completion group (orange) -->
  <rect x="288" y="206" width="184" height="74" rx="8" fill="#ff9800" stroke="#E65100" stroke-width="2"/>
  <text x="308" y="226" text-anchor="start" font-size="13" font-weight="700" fill="#1a1a1a">Completion</text>
  <rect x="315" y="230" width="130" height="40" rx="6" fill="#ffffff" stroke="#E65100" stroke-width="1.5"/>
  <text x="380" y="255" text-anchor="middle" font-size="15" font-weight="600" fill="#1a1a1a">4 HYDRATE</text>

  <!-- arrow Completion -> Shipping group -->
  <line x1="472" y1="243" x2="540" y2="243" stroke="#555555" stroke-width="2" marker-end="url(#arrow)"/>

  <!-- Shipping group (green) -->
  <rect x="544" y="206" width="200" height="74" rx="8" fill="#81c784" stroke="#2E7D32" stroke-width="2"/>
  <text x="556" y="226" text-anchor="start" font-size="12" font-weight="700" fill="#1a1a1a">Shipping</text>
  <rect x="552" y="230" width="86" height="40" rx="6" fill="#ffffff" stroke="#2E7D32" stroke-width="1.5"/>
  <text x="595" y="255" text-anchor="middle" font-size="13" font-weight="600" fill="#1a1a1a">5 SHIP</text>
  <line x1="638" y1="250" x2="652" y2="250" stroke="#555555" stroke-width="2" marker-end="url(#arrow)"/>
  <rect x="650" y="230" width="86" height="40" rx="6" fill="#ffffff" stroke="#2E7D32" stroke-width="1.5"/>
  <text x="693" y="254" text-anchor="middle" font-size="12" font-weight="600" fill="#1a1a1a">6 REVIEW-PR</text>
</svg>
